<svg height="64" viewBox="0 0 55 48" width="55" xmlns="http://www.w3.org/2000/svg"><g fill="#fff"><path d="m37.112 22.178h-4.615v-4.615c.006-.931-.744-1.69-1.674-1.697h-6.663c-.931 0-1.686.755-1.686 1.685v4.615h-4.604c-.93-.006-1.69.743-1.696 1.674v6.663c0 .93.754 1.685 1.685 1.685h4.615v4.603c-.006.931.743 1.69 1.674 1.697h6.652c.93 0 1.685-.754 1.685-1.685v-4.615h4.615c.931.006 1.69-.743 1.697-1.674v-6.651c0-.93-.755-1.685-1.685-1.685zm-.577 7.748h-5.17c-.624 0-1.13.506-1.13 1.13v5.17h-5.498v-5.17c0-.624-.506-1.13-1.13-1.13h-5.17v-5.486h5.17c.624 0 1.13-.507 1.13-1.131v-5.18h5.486v5.168c0 .625.507 1.131 1.131 1.131h5.18v5.498z"/><path d="m47.167 7.405h-9.32v-3.981c.058-1.817-1.367-3.337-3.184-3.396-.092-.003-.185-.002-.277.003h-13.8c-1.815-.095-3.364 1.3-3.458 3.115-.005.093-.006.185-.003.278v3.959h-9.32c-3.597 0-7.805 2.047-7.805 7.804v24.603c0 5.757 4.208 7.805 7.805 7.805h39.362c3.597 0 7.805-2.048 7.805-7.805v-24.58c0-5.757-4.197-7.805-7.805-7.805zm-27.78-3.981c0-.328 0-1.21 1.21-1.21h13.789c1.21 0 1.21.87 1.21 1.21v3.959h-16.209v-3.96zm33.323 36.365c0 5-3.869 5.542-5.543 5.542h-39.362c-1.663 0-5.543-.543-5.543-5.542v-24.579c0-5 3.869-5.542 5.543-5.542h39.362c1.663 0 5.543.542 5.543 5.542z"/></g></svg>
