<svg height="64" viewBox="0 0 44 60" width="44" xmlns="http://www.w3.org/2000/svg"><g fill="#fff"><path d="m36.785 16.447v-3.063h.16c.652 0 1.167-.597 1.167-1.247v-10.972c.002-.31-.12-.608-.339-.827-.219-.218-.517-.34-.828-.338h-29.998c-.306 0-.6.123-.812.343s-.325.517-.313.821v10.972c0 .65.473 1.248 1.125 1.248h.202v3.067c0 .008-.042.014-.057.023l-.177.087c-.073.037-.149.075-.221.113l-.174.096-.209.118-.172.104-.2.124-.17.11-.191.13-.167.118c-.063.045-.125.09-.186.137-.055.04-.11.082-.163.124-.06.046-.12.094-.18.142l-.159.13c-.058.048-.116.098-.173.148l-.154.135-.169.155-.149.14-.163.162-.142.144-.16.17-.135.147c-.053.058-.105.12-.156.18-.043.048-.086.097-.127.147l-.16.196-.111.14c-.065.084-.128.169-.191.254l-.107.146c-.07.098-.139.197-.206.297-.032.047-.062.096-.094.144-.047.073-.095.146-.14.22-.034.054-.066.108-.099.163-.041.07-.083.138-.123.209l-.097.173-.113.206-.091.18-.104.208c-.03.061-.057.123-.086.184l-.096.21-.08.189-.089.213c-.025.064-.05.128-.073.192-.028.072-.055.144-.08.217-.024.064-.046.129-.068.194-.026.073-.05.147-.073.22-.021.065-.041.13-.06.196l-.066.225-.054.197c-.02.076-.038.153-.057.229-.016.066-.032.131-.046.197-.018.078-.034.156-.05.236l-.039.196-.041.241-.032.194c-.012.083-.023.167-.033.25l-.024.189c-.01.088-.017.176-.025.264l-.017.178c-.007.099-.012.198-.016.297-.003.05.009.1.007.149-.006.148.007.298.007.448v25.721c-.002 3.649 2.959 6.61 6.616 6.617h29.928c3.666-.005 6.64-2.963 6.656-6.62v-25.716c.006-2.418-.704-4.782-2.04-6.798-1.175-1.782-2.815-3.21-4.743-4.133zm-28.604-14.094h27.572v8.678h-27.572zm33.027 50.738c-.013 2.36-1.934 4.267-4.3 4.27h-29.92c-2.359-.004-4.267-1.915-4.263-4.267v-25.717c-.002-2.072.647-4.092 1.857-5.776.14-.194.278-.382.431-.565.077-.091.151-.217.23-.305.975-1.073 2.17-1.923 3.504-2.493h.01c.448-.14.753-.553.75-1.022v-3.832h24.919v3.833c-.002.483.293.916.742 1.094 3.615 1.424 6.04 5.068 6.04 9.067v25.712z"/><path d="m34.545 32.754h-7.138v-7.218c0-.651-.521-1.179-1.165-1.179h-7.138c-.643 0-1.165.528-1.165 1.179v7.218h-6.992c-.643 0-1.165.528-1.165 1.179v6.777c0 .65.522 1.178 1.165 1.178h6.992v7.22c0 .65.522 1.178 1.165 1.178h7.138c.644 0 1.165-.528 1.165-1.179v-7.219h7.138c.644 0 1.165-.527 1.165-1.178v-6.777c0-.65-.521-1.179-1.165-1.179zm-1.165 6.777h-7.138c-.643 0-1.165.528-1.165 1.179v7.219h-4.807v-7.22c0-.65-.522-1.178-1.166-1.178h-6.991v-4.42h6.991c.644 0 1.166-.527 1.166-1.178v-7.219h4.807v7.219c0 .65.522 1.179 1.165 1.179h7.138v4.42z"/></g></svg>
