<svg height="64" viewBox="0 0 65 64" width="65" xmlns="http://www.w3.org/2000/svg"><g fill="#fff"><path d="m64.12 7.538-7.239-7.238c-.4-.4-1.049-.4-1.448 0-.4.4-.4 1.047 0 1.448l7.238 7.238c.2.2.462.3.724.3.26 0 .524-.1.723-.3.4-.4.4-1.047 0-1.448z"/><path d="m61.79 5.607-2.977-2.977c-.342-.344-.872-.406-1.287-.158-2.544 1.527-4.898 3.364-6.995 5.462l-4.374 4.374c-.198.197-.309.464-.309.744s.11.547.309.745l4.467 4.466c.205.205.475.308.744.308.27 0 .54-.103.744-.308l4.374-4.375c2.1-2.099 3.937-4.452 5.462-6.994.249-.415.183-.946-.158-1.287zm-6.792 6.792-3.63 3.63-2.977-2.978 3.63-3.63c1.782-1.783 3.762-3.367 5.892-4.715l1.8 1.801c-1.348 2.129-2.931 4.108-4.715 5.892zm-2.498 11.231-10.55-10.55c-.416-.416-1.091-.416-1.507 0l-25.09 25.09c-1.125 1.125-1.125 2.954 0 4.078l7.978 7.978c.545.546 1.269.845 2.04.845.77 0 1.495-.299 2.04-.845l25.09-25.09c.2-.198.312-.47.312-.753s-.112-.553-.313-.753zm-26.598 25.088c-.284.285-.779.286-1.063 0l-7.98-7.978c-.293-.293-.293-.771 0-1.064l24.337-24.336 9.043 9.041-24.337 24.336z"/><path d="m22.318 46.312-3.051-3.05c-.422-.421-1.104-.421-1.525 0l-2.287 2.288c-1.261 1.262-1.261 3.314 0 4.576.631.63 1.46.945 2.287.945.828 0 1.658-.316 2.288-.945l2.288-2.289c.421-.421.421-1.103 0-1.525zm-3.812 2.289c-.422.418-1.106.418-1.526 0-.42-.422-.42-1.107 0-1.526l1.525-1.525 1.526 1.525z"/><path d="m16.507 47.913c-.432-.432-1.13-.432-1.56 0l-14.043 14.043c-.431.431-.431 1.129 0 1.56.215.215.498.323.78.323s.565-.107.78-.323l14.043-14.043c.431-.432.431-1.129 0-1.56zm22.05-21.96-4.733-4.733c-.436-.436-1.142-.436-1.577 0-.436.436-.436 1.141 0 1.578l4.732 4.732c.218.218.504.327.79.327.285 0 .57-.11.788-.327.436-.436.436-1.141 0-1.577zm-4.642 4.643-4.734-4.733c-.435-.436-1.143-.436-1.578 0s-.435 1.14 0 1.577l4.734 4.733c.217.218.503.327.789.327.285 0 .571-.11.789-.327.435-.436.435-1.141 0-1.577zm-4.644 3.482-4.733-4.733c-.436-.436-1.142-.436-1.577 0-.436.436-.436 1.141 0 1.578l4.733 4.732c.217.218.503.327.788.327.286 0 .572-.108.79-.327.435-.436.435-1.141 0-1.577zm-4.643 4.642-4.733-4.732c-.435-.436-1.14-.436-1.577 0-.436.436-.436 1.14 0 1.577l4.733 4.733c.217.218.503.327.789.327.285 0 .57-.108.788-.327.436-.436.436-1.141 0-1.577zm32.517-16.821-13.464-13.464c-.413-.413-1.082-.413-1.496 0l-2.991 2.992c-.199.197-.31.466-.31.748 0 .281.111.549.31.748l13.464 13.463c.206.207.477.31.748.31.27 0 .541-.103.748-.31l2.991-2.991c.2-.198.31-.467.31-.748s-.11-.55-.31-.748zm-3.74 2.243-11.966-11.968 1.496-1.495 11.968 11.967-1.496 1.496z"/><path d="m50.167 20.103-4.697-4.702c-.415-.416-1.15-.416-1.565 0l-4.697 4.702c-.208.207-.324.489-.324.784s.116.575.324.783l4.697 4.702c.216.216.5.324.782.324.284 0 .567-.108.783-.324l4.697-4.702c.208-.207.324-.488.324-.783s-.116-.575-.324-.784zm-5.48 3.918-3.131-3.134 3.13-3.135 3.13 3.135-3.13 3.134z"/><path d="m47.855 27.186-10.621-10.621c-.419-.42-1.098-.42-1.518 0s-.42 1.097 0 1.517l10.622 10.621c.209.21.484.315.758.315.275 0 .55-.105.759-.315.42-.42.42-1.097 0-1.517z"/></g></svg>