<svg height="64" viewBox="0 0 68 50" width="68" xmlns="http://www.w3.org/2000/svg"><path d="m66.309 24.15h-5.673c2.358-5.358 2.103-9.695 1.21-12.629-1.528-5.23-6.691-10.906-14.34-10.906-2.04 0-4.08.382-6.183 1.148-3.633 1.34-6.055 2.806-7.139 3.571-1.083-.765-3.442-2.232-7.139-3.571-2.104-.766-4.208-1.148-6.184-1.148-7.649 0-12.811 5.675-14.341 10.905-.893 3.125-1.212 7.845 1.784 13.777h-6.884c-.573 0-1.02.446-1.02 1.02s.447 1.02 1.02 1.02h8.095c.32.575.702 1.149 1.148 1.723 6.629 9.567 21.034 19.963 23.648 20.601v.064s.063 0 .127-.064h.191v-.064c2.231-1.084 16.063-10.013 23.33-20.6.7-.958 1.274-1.914 1.784-2.871h6.693c.574 0 1.02-.447 1.02-1.02 0-.575-.574-.957-1.147-.957zm-10.199 3.763c-6.756 9.886-19.186 17.858-21.863 19.58-2.741-1.722-15.107-9.758-21.927-19.58l-.382-.574h9.37c.382 0 .764-.192.956-.574l4.27-8.42 6.693 17.158c.128.382.574.638.956.638h.064c.446 0 .829-.32.956-.766l5.864-20.09 3.123 10.14c.128.383.447.638.83.702.382.064.764-.128 1.019-.447l2.486-3.635 2.103 3.572c.192.319.51.51.893.51h5.736c-.382.638-.765 1.212-1.147 1.786zm2.295-3.763h-6.247l-2.613-4.465c-.191-.319-.51-.51-.893-.51-.382 0-.7.127-.892.446l-2.167 3.19-3.506-11.417c-.127-.447-.574-.702-1.02-.766-.446 0-.892.32-1.02.766l-5.927 20.473-6.437-16.455c-.128-.383-.51-.638-.893-.638-.446 0-.765.191-.956.574l-5.035 9.886h-10.136c-2.55-4.656-3.251-9.12-2.104-13.139 1.339-4.528 5.737-9.375 12.366-9.375 1.785 0 3.633.383 5.482 1.02 4.653 1.723 7.139 3.7 7.202 3.7.383.32.893.32 1.275 0 0 0 2.486-1.977 7.203-3.7 1.849-.7 3.697-1.02 5.482-1.02 6.565 0 11.027 4.848 12.366 9.376 1.083 3.7.51 7.781-1.53 12.055z" fill="#fff"/></svg>
